# xmcd
#
# Track frame offsets:
#	150
#	9699
#	28552
#	47209
#	60761
#	77290
#	93154
#	115968
#	129546
#	151478
#	172781
#	195295
#	223748
#	239775
#	252271
#	270248
#
# Disc length: 3847 seconds
#
# Revision: 2
# Processed by: cddbd v1.5.2PL0 Copyright (c) Steve Scherf et al.
# Submitted via: EasyCDDAExtractor 5.0.6
#
DISCID=c50f0510
DTITLE=Rza  - As Bobby Digital in Digi Snacks
DYEAR=2008
DGENRE=Hip-Hop
TTITLE0=Digi Snacks (Intro) (Feat. Understanding)
TTITLE1=Long Time Coming (Feat. Danny Keyz)
TTITLE2=You Can't Stop Me Now (Feat. Inspectah Deck)
TTITLE3=Straight Up The Block (Feat. David Banner)
TTITLE4=Booby Trap (Feat. Dexter Wiggles)
TTITLE5=Try Ya Ya Ya (Feat. Monk)
TTITLE6=Good Night (Feat. The Reverend William Burke, Thea and Crisis)
TTITLE7=No Regrets
TTITLE8=Money Don't Own Me (Feat. Monk and Stone Mecca)
TTITLE9=Creep (Feat. Black Knights, North Star, Thea and Dexter Wiggles)
TTITLE10=Drama (Feat. Monk and Thea)
TTITLE11=Up Again (Feat. Kinetic, The Reverend William Burke, George Clinton &
TTITLE11=El Debarge)
TTITLE12=Put Your Guns Down (Feat. Star)
TTITLE13=Love Is Digi/Part II (Feat. Kinetic, Crisis and Thea)
TTITLE14=O Day
TTITLE15=Don't Be Afraid (Bonus Track)
EXTD=YEAR: 2008
EXTT0=
EXTT1=
EXTT2=
EXTT3=
EXTT4=
EXTT5=
EXTT6=
EXTT7=
EXTT8=
EXTT9=
EXTT10=
EXTT11=
EXTT12=
EXTT13=
EXTT14=
EXTT15=
PLAYORDER=
